<svg id="svg" version="1.1" xmlns="http://www.w3.org/2000/svg" xmlns:xlink="http://www.w3.org/1999/xlink" width="400" height="400" viewBox="0, 0, 400,400"><g id="svgg"><path id="path0" d="M48.000 200.394 L 48.000 300.000 59.967 300.000 C 66.549 300.000,72.219 299.891,72.567 299.757 C 73.141 299.537,73.200 292.648,73.200 225.790 C 73.200 185.241,73.313 151.771,73.451 151.411 C 73.814 150.465,74.118 151.002,83.607 169.400 C 85.423 172.920,87.755 177.420,88.790 179.400 C 89.825 181.380,92.261 186.060,94.202 189.800 C 96.143 193.540,99.097 199.212,100.766 202.405 C 102.435 205.597,104.606 209.827,105.590 211.805 C 106.575 213.782,107.475 215.490,107.591 215.600 C 107.707 215.710,109.129 218.410,110.751 221.600 C 112.374 224.790,114.289 228.480,115.007 229.800 C 115.725 231.120,117.839 235.170,119.704 238.800 C 124.032 247.222,128.812 256.432,132.161 262.800 C 133.607 265.550,135.819 269.870,137.078 272.400 C 138.336 274.930,139.466 277.090,139.589 277.200 C 139.711 277.310,140.543 278.840,141.436 280.600 C 145.460 288.525,150.957 299.045,151.314 299.506 C 151.619 299.898,154.495 299.988,164.154 299.906 L 176.600 299.800 176.600 200.400 L 176.600 101.000 164.100 100.894 L 151.600 100.789 151.600 150.494 C 151.599 210.607,151.235 248.878,150.665 248.688 C 150.235 248.545,149.307 246.871,144.410 237.400 C 142.704 234.100,140.365 229.600,139.214 227.400 C 132.804 215.152,127.701 205.354,123.903 198.000 C 122.369 195.030,120.252 190.980,119.199 189.000 C 118.145 187.020,115.800 182.520,113.987 179.000 C 110.664 172.547,109.101 169.540,104.322 160.400 C 101.922 155.811,99.329 150.826,93.193 139.000 C 88.527 130.008,76.694 107.322,74.519 103.200 L 73.358 101.000 60.679 100.894 L 48.000 100.789 48.000 200.394 M222.000 200.400 L 222.000 300.000 234.200 300.000 L 246.400 300.000 246.406 259.700 C 246.409 237.535,246.556 219.173,246.732 218.896 C 246.984 218.500,251.311 218.415,267.019 218.496 L 286.987 218.600 289.253 223.200 C 292.214 229.210,297.154 239.421,299.897 245.200 C 302.143 249.933,305.050 255.952,310.809 267.800 C 312.628 271.540,314.915 276.310,315.893 278.400 C 316.871 280.490,318.845 284.630,320.281 287.600 C 321.717 290.570,323.637 294.570,324.546 296.488 L 326.200 299.977 339.020 299.988 C 352.498 300.001,353.057 299.928,352.419 298.249 C 352.095 297.398,336.238 265.359,319.646 232.031 C 314.781 222.258,310.805 213.888,310.812 213.431 C 310.821 212.783,311.638 212.204,314.512 210.805 C 327.328 204.566,336.912 195.319,342.291 184.000 C 344.377 179.611,344.787 178.570,345.600 175.600 C 345.871 174.610,346.237 173.350,346.413 172.800 C 347.458 169.544,347.786 154.071,346.914 149.200 C 345.912 143.604,345.113 140.520,343.906 137.600 C 343.679 137.050,343.313 136.150,343.094 135.600 C 339.226 125.908,330.291 116.039,320.355 110.483 C 319.560 110.039,318.570 109.481,318.155 109.244 C 316.950 108.555,312.346 106.562,310.600 105.973 C 309.720 105.676,308.820 105.323,308.600 105.189 C 308.380 105.054,307.390 104.719,306.400 104.445 C 305.410 104.170,304.060 103.795,303.400 103.610 C 300.701 102.855,295.290 101.845,290.600 101.221 C 288.557 100.949,275.575 100.796,254.700 100.797 L 222.000 100.800 222.000 200.400 M287.025 121.406 C 294.689 122.468,300.983 124.337,304.062 126.466 C 304.646 126.870,305.243 127.200,305.390 127.200 C 305.972 127.200,309.529 129.874,311.743 131.976 C 316.615 136.600,319.713 142.119,321.579 149.500 C 323.252 156.113,322.885 167.083,320.808 172.600 C 315.449 186.827,303.491 195.556,286.600 197.569 C 280.367 198.312,246.940 198.143,246.643 197.367 C 246.325 196.540,246.325 122.260,246.643 121.433 C 246.995 120.515,280.432 120.493,287.025 121.406 " stroke="none" fill="#fafafa" fill-rule="evenodd"></path><path id="path1" d="M30.400 0.291 C 29.630 0.382,28.829 0.624,28.620 0.829 C 28.411 1.033,27.837 1.200,27.344 1.200 C 26.851 1.200,26.336 1.380,26.200 1.600 C 26.064 1.820,25.513 2.000,24.976 2.000 C 24.439 2.000,24.000 2.180,24.000 2.400 C 24.000 2.620,23.640 2.800,23.200 2.800 C 22.760 2.800,22.400 2.980,22.400 3.200 C 22.400 3.420,22.040 3.600,21.600 3.600 C 21.160 3.600,20.800 3.780,20.800 4.000 C 20.800 4.220,20.440 4.400,20.000 4.400 C 19.560 4.400,19.200 4.580,19.200 4.800 C 19.200 5.020,18.912 5.200,18.560 5.200 C 18.209 5.200,17.417 5.740,16.800 6.400 C 16.183 7.060,15.483 7.600,15.243 7.600 C 14.218 7.600,7.600 14.206,7.600 15.229 C 7.600 15.476,7.060 16.183,6.400 16.800 C 5.740 17.417,5.200 18.209,5.200 18.560 C 5.200 18.912,5.020 19.200,4.800 19.200 C 4.580 19.200,4.400 19.560,4.400 20.000 C 4.400 20.440,4.220 20.800,4.000 20.800 C 3.780 20.800,3.600 21.160,3.600 21.600 C 3.600 22.040,3.420 22.400,3.200 22.400 C 2.980 22.400,2.800 22.760,2.800 23.200 C 2.800 23.640,2.620 24.000,2.400 24.000 C 2.180 24.000,2.000 24.439,2.000 24.976 C 2.000 25.513,1.820 26.064,1.600 26.200 C 1.380 26.336,1.200 26.851,1.200 27.344 C 1.200 27.837,0.975 28.465,0.700 28.740 C -0.036 29.476,-0.036 370.524,0.700 371.260 C 0.975 371.535,1.200 372.163,1.200 372.656 C 1.200 373.149,1.380 373.664,1.600 373.800 C 1.820 373.936,2.000 374.487,2.000 375.024 C 2.000 375.561,2.180 376.000,2.400 376.000 C 2.620 376.000,2.800 376.360,2.800 376.800 C 2.800 377.240,2.980 377.600,3.200 377.600 C 3.420 377.600,3.600 377.960,3.600 378.400 C 3.600 378.840,3.780 379.200,4.000 379.200 C 4.220 379.200,4.400 379.560,4.400 380.000 C 4.400 380.440,4.580 380.800,4.800 380.800 C 5.020 380.800,5.200 381.088,5.200 381.440 C 5.200 381.791,5.740 382.583,6.400 383.200 C 7.060 383.817,7.600 384.517,7.600 384.757 C 7.600 385.782,14.206 392.400,15.229 392.400 C 15.476 392.400,16.183 392.940,16.800 393.600 C 17.417 394.260,18.209 394.800,18.560 394.800 C 18.912 394.800,19.200 394.980,19.200 395.200 C 19.200 395.420,19.560 395.600,20.000 395.600 C 20.440 395.600,20.800 395.780,20.800 396.000 C 20.800 396.220,21.160 396.400,21.600 396.400 C 22.040 396.400,22.400 396.580,22.400 396.800 C 22.400 397.020,22.760 397.200,23.200 397.200 C 23.640 397.200,24.000 397.380,24.000 397.600 C 24.000 397.820,24.439 398.000,24.976 398.000 C 25.513 398.000,26.064 398.180,26.200 398.400 C 26.336 398.620,26.851 398.800,27.344 398.800 C 27.837 398.800,28.465 399.025,28.740 399.300 C 29.476 400.036,370.524 400.036,371.260 399.300 C 371.535 399.025,372.163 398.800,372.656 398.800 C 373.149 398.800,373.664 398.620,373.800 398.400 C 373.936 398.180,374.487 398.000,375.024 398.000 C 375.561 398.000,376.000 397.820,376.000 397.600 C 376.000 397.380,376.360 397.200,376.800 397.200 C 377.240 397.200,377.600 397.020,377.600 396.800 C 377.600 396.580,377.960 396.400,378.400 396.400 C 378.840 396.400,379.200 396.220,379.200 396.000 C 379.200 395.780,379.560 395.600,380.000 395.600 C 380.440 395.600,380.800 395.420,380.800 395.200 C 380.800 394.980,381.088 394.800,381.440 394.800 C 381.791 394.800,382.583 394.260,383.200 393.600 C 383.817 392.940,384.524 392.400,384.771 392.400 C 385.794 392.400,392.400 385.782,392.400 384.757 C 392.400 384.517,392.940 383.817,393.600 383.200 C 394.260 382.583,394.800 381.791,394.800 381.440 C 394.800 381.088,394.980 380.800,395.200 380.800 C 395.420 380.800,395.600 380.440,395.600 380.000 C 395.600 379.560,395.780 379.200,396.000 379.200 C 396.220 379.200,396.400 378.840,396.400 378.400 C 396.400 377.960,396.580 377.600,396.800 377.600 C 397.020 377.600,397.200 377.240,397.200 376.800 C 397.200 376.360,397.380 376.000,397.600 376.000 C 397.820 376.000,398.000 375.561,398.000 375.024 C 398.000 374.487,398.180 373.936,398.400 373.800 C 398.620 373.664,398.800 373.149,398.800 372.656 C 398.800 372.163,399.025 371.535,399.300 371.260 C 400.036 370.524,400.036 29.476,399.300 28.740 C 399.025 28.465,398.800 27.837,398.800 27.344 C 398.800 26.851,398.620 26.336,398.400 26.200 C 398.180 26.064,398.000 25.513,398.000 24.976 C 398.000 24.439,397.820 24.000,397.600 24.000 C 397.380 24.000,397.200 23.640,397.200 23.200 C 397.200 22.760,397.020 22.400,396.800 22.400 C 396.580 22.400,396.400 22.040,396.400 21.600 C 396.400 21.160,396.220 20.800,396.000 20.800 C 395.780 20.800,395.600 20.440,395.600 20.000 C 395.600 19.560,395.420 19.200,395.200 19.200 C 394.980 19.200,394.800 18.912,394.800 18.560 C 394.800 18.209,394.260 17.417,393.600 16.800 C 392.940 16.183,392.400 15.476,392.400 15.229 C 392.400 14.206,385.782 7.600,384.757 7.600 C 384.517 7.600,383.817 7.060,383.200 6.400 C 382.583 5.740,381.791 5.200,381.440 5.200 C 381.088 5.200,380.800 5.020,380.800 4.800 C 380.800 4.580,380.440 4.400,380.000 4.400 C 379.560 4.400,379.200 4.220,379.200 4.000 C 379.200 3.780,378.840 3.600,378.400 3.600 C 377.960 3.600,377.600 3.420,377.600 3.200 C 377.600 2.980,377.240 2.800,376.800 2.800 C 376.360 2.800,376.000 2.620,376.000 2.400 C 376.000 2.180,375.561 2.000,375.024 2.000 C 374.487 2.000,373.936 1.820,373.800 1.600 C 373.664 1.380,373.149 1.200,372.656 1.200 C 372.163 1.200,371.535 0.975,371.260 0.700 C 370.782 0.222,34.383 -0.182,30.400 0.291 M73.733 100.500 C 73.994 100.775,75.119 102.800,76.232 105.000 C 77.345 107.200,79.346 111.070,80.677 113.600 C 82.851 117.730,85.497 122.810,91.201 133.800 C 96.771 144.533,99.780 150.328,102.210 155.000 C 103.697 157.860,105.830 162.000,106.949 164.200 C 108.069 166.400,109.078 168.290,109.192 168.400 C 109.307 168.510,110.639 171.030,112.153 174.000 C 113.667 176.970,115.397 180.300,115.999 181.400 C 116.600 182.500,118.781 186.730,120.844 190.800 C 122.908 194.870,124.689 198.290,124.804 198.400 C 124.918 198.510,125.740 200.040,126.630 201.800 C 127.520 203.560,129.520 207.430,131.075 210.400 C 132.629 213.370,135.213 218.320,136.816 221.400 C 138.419 224.480,140.715 228.890,141.918 231.200 C 143.121 233.510,145.476 238.055,147.152 241.300 L 150.200 247.201 150.446 236.300 C 150.582 230.305,150.720 197.410,150.753 163.200 C 150.785 128.990,150.957 100.772,151.133 100.494 C 151.383 100.100,154.315 100.012,164.427 100.094 L 177.400 100.200 177.400 200.200 L 177.400 300.200 164.187 300.305 L 150.974 300.411 148.433 295.505 C 146.021 290.848,144.541 288.000,138.855 277.081 C 137.504 274.486,135.522 270.706,134.452 268.681 C 133.382 266.657,130.908 261.850,128.954 258.000 C 127.001 254.150,125.304 250.910,125.184 250.800 C 125.063 250.690,124.115 248.890,123.077 246.800 C 122.038 244.710,120.369 241.470,119.367 239.600 C 118.366 237.730,115.642 232.510,113.314 228.000 C 108.453 218.581,106.071 213.988,102.113 206.400 C 100.564 203.430,97.970 198.390,96.348 195.200 C 94.727 192.010,93.265 189.340,93.100 189.267 C 92.935 189.193,92.800 188.803,92.800 188.400 C 92.800 187.997,92.665 187.607,92.500 187.533 C 92.335 187.460,91.467 185.960,90.571 184.200 C 89.674 182.440,87.854 178.930,86.526 176.400 C 82.066 167.905,77.056 158.221,75.823 155.712 C 75.150 154.343,74.494 153.218,74.365 153.212 C 73.928 153.190,73.601 193.204,73.600 246.905 L 73.600 300.411 60.500 300.305 L 47.400 300.200 47.298 200.600 C 47.241 145.820,47.281 100.775,47.385 100.500 C 47.531 100.114,50.511 100.000,60.416 100.000 C 70.169 100.000,73.372 100.120,73.733 100.500 M290.680 100.606 C 296.941 101.409,301.431 102.256,304.400 103.192 C 304.950 103.365,306.210 103.739,307.200 104.023 C 308.190 104.307,309.171 104.688,309.380 104.870 C 309.589 105.051,309.996 105.200,310.284 105.200 C 311.516 105.200,322.391 110.529,322.733 111.300 C 322.807 111.465,323.077 111.602,323.333 111.605 C 323.590 111.608,324.250 111.963,324.800 112.394 C 330.661 116.984,332.219 118.349,334.060 120.502 C 335.234 121.876,336.301 123.090,336.430 123.200 C 336.948 123.641,340.800 129.590,340.800 129.949 C 340.800 130.160,340.936 130.393,341.102 130.467 C 341.596 130.685,344.258 136.360,345.104 139.000 C 347.600 146.788,348.202 150.783,348.182 159.400 C 348.155 170.722,347.120 175.492,342.672 184.800 C 339.097 192.283,326.480 206.346,323.300 206.393 C 323.025 206.397,322.800 206.550,322.800 206.732 C 322.800 206.915,322.305 207.320,321.700 207.632 C 321.095 207.944,320.510 208.289,320.400 208.399 C 320.133 208.667,317.225 210.221,313.900 211.872 C 312.415 212.609,311.200 213.293,311.200 213.391 C 311.200 213.591,333.390 258.449,345.436 282.600 C 349.966 291.682,353.213 298.660,353.208 299.300 L 353.200 300.400 339.400 300.400 C 327.400 300.400,325.600 300.322,325.600 299.800 C 325.600 299.470,325.420 299.200,325.200 299.200 C 324.980 299.200,324.800 298.983,324.800 298.718 C 324.800 298.452,323.464 295.527,321.832 292.218 C 320.199 288.908,318.155 284.670,317.288 282.800 C 315.732 279.440,312.723 273.205,306.106 259.630 C 304.238 255.797,301.948 251.027,301.017 249.030 C 299.099 244.913,295.041 236.472,287.640 221.200 L 286.574 219.000 266.889 218.896 L 247.204 218.792 247.102 259.496 L 247.000 300.200 234.200 300.200 L 221.400 300.200 221.298 200.600 C 221.241 145.820,221.281 100.775,221.385 100.500 C 221.692 99.693,284.308 99.788,290.680 100.606 M247.200 159.399 L 247.200 197.650 265.900 197.458 C 276.185 197.352,285.770 197.084,287.200 196.864 C 288.630 196.643,290.659 196.334,291.709 196.178 C 292.759 196.022,293.715 195.738,293.833 195.547 C 293.951 195.356,294.463 195.200,294.970 195.200 C 295.914 195.200,299.895 193.733,300.580 193.133 C 300.789 192.950,301.284 192.800,301.680 192.800 C 302.076 192.800,302.400 192.662,302.400 192.494 C 302.400 192.326,303.076 191.896,303.903 191.538 C 307.367 190.037,312.658 185.311,315.639 181.055 C 318.137 177.489,319.557 174.388,321.254 168.800 C 321.935 166.554,322.002 152.803,321.340 151.000 C 321.098 150.340,320.669 148.810,320.389 147.600 C 320.108 146.390,319.748 145.130,319.590 144.800 C 314.889 134.992,310.375 130.111,302.600 126.428 C 293.576 122.154,289.564 121.607,265.300 121.344 L 247.200 121.149 247.200 159.399 " stroke="none" fill="#141444" fill-rule="evenodd"></path><path id="path2" d="M47.467 100.267 C 47.096 100.637,47.129 299.909,47.500 300.138 C 47.665 300.240,47.800 255.251,47.800 200.162 C 47.800 145.073,47.785 100.000,47.767 100.000 C 47.748 100.000,47.613 100.120,47.467 100.267 M150.998 100.900 C 150.878 101.395,150.831 120.610,150.892 143.600 L 151.004 185.400 151.102 143.180 C 151.177 110.986,151.314 100.846,151.680 100.480 C 152.045 100.115,152.047 100.000,151.688 100.000 C 151.428 100.000,151.117 100.405,150.998 100.900 M176.790 100.263 C 177.068 100.401,177.200 132.488,177.200 200.200 C 177.200 267.912,177.068 299.999,176.790 300.137 C 176.565 300.249,176.610 300.293,176.890 300.237 C 177.302 300.153,177.400 280.871,177.400 200.200 C 177.400 119.529,177.302 100.247,176.890 100.163 C 176.610 100.107,176.565 100.151,176.790 100.263 M221.385 100.500 C 220.808 102.019,221.418 300.138,222.000 300.297 C 222.446 300.419,222.471 300.370,222.098 300.106 C 221.698 299.823,221.617 279.580,221.698 199.875 C 221.754 144.944,221.749 100.000,221.687 100.000 C 221.626 100.000,221.489 100.225,221.385 100.500 M281.633 100.147 C 281.725 100.227,283.870 100.388,286.400 100.504 C 289.454 100.644,290.261 100.608,288.800 100.397 C 286.527 100.069,281.339 99.887,281.633 100.147 M294.500 101.476 C 294.885 101.576,295.515 101.576,295.900 101.476 C 296.285 101.375,295.970 101.293,295.200 101.293 C 294.430 101.293,294.115 101.375,294.500 101.476 M297.600 101.980 C 298.599 102.320,301.082 102.532,300.767 102.251 C 300.675 102.169,299.700 101.999,298.600 101.872 C 297.251 101.716,296.926 101.751,297.600 101.980 M301.600 102.752 C 301.930 102.938,302.830 103.202,303.600 103.338 C 304.443 103.488,304.761 103.452,304.400 103.248 C 304.070 103.062,303.170 102.798,302.400 102.662 C 301.557 102.512,301.239 102.548,301.600 102.752 M305.233 103.744 C 305.325 103.823,305.940 104.008,306.600 104.156 C 307.476 104.352,307.638 104.315,307.200 104.018 C 306.660 103.653,304.832 103.398,305.233 103.744 M324.056 112.366 C 324.575 112.787,325.077 113.055,325.171 112.961 C 325.376 112.757,323.944 111.631,323.456 111.613 C 323.266 111.606,323.536 111.945,324.056 112.366 M82.000 116.800 C 82.666 118.120,83.302 119.200,83.412 119.200 C 83.522 119.200,83.066 118.120,82.400 116.800 C 81.734 115.480,81.098 114.400,80.988 114.400 C 80.878 114.400,81.334 115.480,82.000 116.800 M329.953 116.711 C 331.138 117.801,332.999 119.662,334.089 120.847 L 336.070 123.000 334.209 120.726 C 333.185 119.476,331.324 117.615,330.074 116.591 L 327.800 114.730 329.953 116.711 M246.992 159.400 C 246.992 180.520,247.041 189.101,247.100 178.470 C 247.159 167.838,247.159 150.558,247.100 140.070 C 247.041 129.581,246.992 138.280,246.992 159.400 M282.800 121.620 C 283.790 121.797,285.230 121.932,286.000 121.920 C 287.297 121.901,287.267 121.876,285.600 121.580 C 284.610 121.403,283.170 121.268,282.400 121.280 C 281.103 121.299,281.133 121.324,282.800 121.620 M289.800 122.400 C 290.240 122.589,290.960 122.738,291.400 122.732 C 292.043 122.723,292.004 122.657,291.200 122.400 C 289.832 121.962,288.781 121.962,289.800 122.400 M305.600 127.711 C 305.600 127.787,306.185 128.278,306.900 128.801 C 307.704 129.390,307.984 129.487,307.633 129.055 C 307.100 128.399,305.600 127.407,305.600 127.711 M308.600 129.862 C 311.211 132.419,313.996 134.760,312.400 133.056 C 311.410 132.000,310.060 130.760,309.400 130.303 C 308.740 129.845,308.380 129.647,308.600 129.862 M315.678 137.635 C 318.411 141.817,318.484 141.909,317.396 139.800 C 316.829 138.700,315.823 137.170,315.161 136.400 C 314.294 135.392,314.439 135.738,315.678 137.635 M93.440 138.802 C 94.039 139.903,94.593 140.740,94.671 140.663 C 94.843 140.490,92.808 136.800,92.541 136.800 C 92.436 136.800,92.840 137.701,93.440 138.802 M345.044 139.800 C 345.373 141.271,345.602 141.590,345.594 140.567 C 345.591 140.145,345.405 139.530,345.182 139.200 C 344.885 138.762,344.848 138.924,345.044 139.800 M346.673 146.000 C 346.804 146.990,346.976 147.875,347.056 147.967 C 347.357 148.314,347.128 145.764,346.790 145.000 C 346.553 144.466,346.514 144.798,346.673 146.000 M320.056 146.000 C 320.056 146.330,320.211 146.960,320.400 147.400 C 320.617 147.904,320.744 147.978,320.744 147.600 C 320.744 147.270,320.589 146.640,320.400 146.200 C 320.183 145.696,320.056 145.622,320.056 146.000 M320.806 149.233 C 320.809 149.765,320.989 150.470,321.206 150.800 C 321.482 151.222,321.523 150.985,321.342 150.000 C 321.025 148.275,320.798 147.949,320.806 149.233 M347.714 151.800 C 347.717 152.900,347.795 153.303,347.887 152.695 C 347.979 152.086,347.977 151.186,347.882 150.695 C 347.787 150.203,347.711 150.700,347.714 151.800 M73.694 165.824 L 73.789 180.200 73.900 166.820 C 73.961 159.447,74.173 153.340,74.371 153.218 C 74.570 153.095,74.477 152.647,74.166 152.221 C 73.675 151.549,73.612 153.347,73.694 165.824 M321.800 159.800 C 321.800 164.138,321.912 166.456,322.060 165.200 C 322.204 163.990,322.321 161.560,322.321 159.800 C 322.321 158.040,322.204 155.610,322.060 154.400 C 321.912 153.144,321.800 155.462,321.800 159.800 M348.153 159.000 C 348.153 161.640,348.218 162.668,348.297 161.284 C 348.375 159.901,348.374 157.741,348.295 156.484 C 348.216 155.228,348.152 156.360,348.153 159.000 M347.720 166.800 C 347.720 168.010,347.795 168.505,347.887 167.900 C 347.978 167.295,347.978 166.305,347.887 165.700 C 347.795 165.095,347.720 165.590,347.720 166.800 M321.049 169.015 C 320.912 169.373,320.815 169.966,320.834 170.333 C 320.853 170.700,321.027 170.469,321.221 169.820 C 321.598 168.558,321.465 167.933,321.049 169.015 M84.800 173.200 C 85.466 174.520,86.102 175.600,86.212 175.600 C 86.322 175.600,85.866 174.520,85.200 173.200 C 84.534 171.880,83.898 170.800,83.788 170.800 C 83.678 170.800,84.134 171.880,84.800 173.200 M346.860 172.067 C 346.827 172.654,346.696 173.464,346.570 173.867 C 346.352 174.560,346.365 174.561,346.795 173.890 C 347.046 173.499,347.177 172.689,347.086 172.090 L 346.920 171.000 346.860 172.067 M112.800 176.000 C 113.249 176.880,113.706 177.600,113.816 177.600 C 113.926 177.600,113.649 176.880,113.200 176.000 C 112.751 175.120,112.294 174.400,112.184 174.400 C 112.074 174.400,112.351 175.120,112.800 176.000 M346.046 175.267 C 346.021 175.634,345.896 176.264,345.770 176.667 C 345.552 177.362,345.563 177.363,345.997 176.687 C 346.248 176.296,346.373 175.666,346.273 175.287 C 346.111 174.668,346.088 174.666,346.046 175.267 M318.000 177.200 C 317.551 178.080,317.274 178.800,317.384 178.800 C 317.494 178.800,317.951 178.080,318.400 177.200 C 318.849 176.320,319.126 175.600,319.016 175.600 C 318.906 175.600,318.449 176.320,318.000 177.200 M87.206 177.650 C 87.197 178.005,89.233 181.600,89.442 181.600 C 89.538 181.600,89.260 180.925,88.824 180.100 C 87.878 178.311,87.215 177.306,87.206 177.650 M344.713 179.381 C 344.342 180.381,344.117 181.200,344.214 181.200 C 344.493 181.200,345.631 178.294,345.503 177.909 C 345.439 177.718,345.084 178.380,344.713 179.381 M313.026 184.313 C 311.268 186.304,311.095 186.585,312.360 185.400 C 313.858 183.996,315.881 181.577,315.527 181.613 C 315.457 181.620,314.332 182.835,313.026 184.313 M116.800 183.600 C 117.249 184.480,117.706 185.200,117.816 185.200 C 117.926 185.200,117.649 184.480,117.200 183.600 C 116.751 182.720,116.294 182.000,116.184 182.000 C 116.074 182.000,116.351 182.720,116.800 183.600 M308.785 188.429 L 307.400 189.658 308.900 188.581 C 310.226 187.630,310.657 187.200,310.285 187.200 C 310.222 187.200,309.547 187.753,308.785 188.429 M336.555 193.881 C 335.707 194.916,335.222 195.634,335.477 195.476 C 336.021 195.140,338.555 192.000,338.282 192.000 C 338.180 192.000,337.403 192.847,336.555 193.881 M290.200 196.400 C 289.181 196.838,290.232 196.838,291.600 196.400 C 292.404 196.143,292.443 196.077,291.800 196.068 C 291.360 196.062,290.640 196.211,290.200 196.400 M332.189 198.900 L 329.400 201.800 332.300 199.011 C 334.994 196.420,335.383 196.000,335.089 196.000 C 335.028 196.000,333.723 197.305,332.189 198.900 M283.800 197.200 L 282.200 197.486 283.800 197.496 C 284.680 197.501,285.940 197.368,286.600 197.200 L 287.800 196.895 286.600 196.904 C 285.940 196.909,284.680 197.042,283.800 197.200 M327.200 203.249 C 326.119 204.226,325.879 204.558,326.600 204.081 C 327.706 203.349,329.537 201.584,329.162 201.612 C 329.073 201.619,328.190 202.355,327.200 203.249 M128.400 206.000 C 128.849 206.880,129.306 207.600,129.416 207.600 C 129.526 207.600,129.249 206.880,128.800 206.000 C 128.351 205.120,127.894 204.400,127.784 204.400 C 127.674 204.400,127.951 205.120,128.400 206.000 M323.994 205.618 C 323.447 206.039,323.180 206.380,323.400 206.378 C 323.929 206.373,325.391 205.258,325.165 205.031 C 325.068 204.934,324.541 205.198,323.994 205.618 M102.000 206.096 C 102.000 206.513,103.740 209.593,103.891 209.442 C 103.973 209.361,103.651 208.598,103.177 207.747 C 102.251 206.087,102.000 205.735,102.000 206.096 M104.800 211.600 C 105.249 212.480,105.706 213.200,105.816 213.200 C 105.926 213.200,105.649 212.480,105.200 211.600 C 104.751 210.720,104.294 210.000,104.184 210.000 C 104.074 210.000,104.351 210.720,104.800 211.600 M132.000 212.800 C 132.666 214.120,133.302 215.200,133.412 215.200 C 133.522 215.200,133.066 214.120,132.400 212.800 C 131.734 211.480,131.098 210.400,130.988 210.400 C 130.878 210.400,131.334 211.480,132.000 212.800 M311.226 212.968 C 310.788 213.496,312.371 217.600,313.013 217.600 C 313.123 217.600,312.741 216.667,312.163 215.527 C 311.163 213.554,311.147 213.428,311.833 212.927 C 312.229 212.637,312.361 212.400,312.125 212.400 C 311.890 212.400,311.486 212.656,311.226 212.968 M246.898 259.267 C 246.821 291.352,246.694 299.976,246.300 300.135 C 245.908 300.293,245.911 300.344,246.313 300.368 C 247.204 300.423,247.208 300.179,247.101 259.000 L 246.996 218.600 246.898 259.267 M316.400 224.553 C 316.400 224.982,317.590 227.200,317.821 227.200 C 317.931 227.200,317.723 226.615,317.359 225.900 C 316.617 224.440,316.400 224.136,316.400 224.553 M150.400 237.800 C 150.290 243.300,150.245 247.875,150.300 247.967 C 150.713 248.655,150.801 246.457,150.707 237.760 L 150.599 227.800 150.400 237.800 M116.800 234.800 C 117.466 236.120,118.102 237.200,118.212 237.200 C 118.322 237.200,117.866 236.120,117.200 234.800 C 116.534 233.480,115.898 232.400,115.788 232.400 C 115.678 232.400,116.134 233.480,116.800 234.800 M144.209 236.302 C 144.825 237.458,145.399 238.334,145.484 238.249 C 145.670 238.063,144.101 235.168,143.506 234.600 C 143.276 234.380,143.592 235.146,144.209 236.302 M148.000 243.600 C 148.449 244.480,148.906 245.200,149.016 245.200 C 149.126 245.200,148.849 244.480,148.400 243.600 C 147.951 242.720,147.494 242.000,147.384 242.000 C 147.274 242.000,147.551 242.720,148.000 243.600 M301.220 249.273 C 301.196 249.604,304.692 256.829,305.038 257.163 C 305.173 257.293,305.022 256.770,304.701 256.000 C 303.893 254.060,301.244 248.940,301.220 249.273 M330.909 253.900 C 330.995 254.065,331.374 254.875,331.752 255.700 C 332.129 256.525,332.530 257.200,332.642 257.200 C 332.755 257.200,332.777 257.065,332.691 256.900 C 332.605 256.735,332.226 255.925,331.848 255.100 C 331.471 254.275,331.070 253.600,330.958 253.600 C 330.845 253.600,330.823 253.735,330.909 253.900 M132.800 265.600 C 133.249 266.480,133.706 267.200,133.816 267.200 C 133.926 267.200,133.649 266.480,133.200 265.600 C 132.751 264.720,132.294 264.000,132.184 264.000 C 132.074 264.000,132.351 264.720,132.800 265.600 M134.000 267.696 C 134.000 268.113,135.740 271.193,135.891 271.042 C 135.973 270.961,135.651 270.198,135.177 269.347 C 134.251 267.687,134.000 267.335,134.000 267.696 M136.800 273.200 C 137.249 274.080,137.706 274.800,137.816 274.800 C 137.926 274.800,137.649 274.080,137.200 273.200 C 136.751 272.320,136.294 271.600,136.184 271.600 C 136.074 271.600,136.351 272.320,136.800 273.200 M317.636 283.400 C 317.636 283.620,318.070 284.610,318.600 285.600 C 319.130 286.590,319.564 287.220,319.564 287.000 C 319.564 286.780,319.130 285.790,318.600 284.800 C 318.070 283.810,317.636 283.180,317.636 283.400 M348.885 290.185 C 349.808 292.047,350.628 293.505,350.707 293.426 C 350.885 293.249,347.665 286.800,347.398 286.800 C 347.293 286.800,347.961 288.323,348.885 290.185 M73.200 297.767 C 73.200 299.126,73.014 300.009,72.700 300.135 C 72.401 300.256,72.482 300.350,72.900 300.368 C 73.492 300.395,73.600 300.031,73.600 298.000 C 73.600 296.680,73.510 295.600,73.400 295.600 C 73.290 295.600,73.200 296.575,73.200 297.767 " stroke="none" fill="#666687" fill-rule="evenodd"></path><path id="path3" d="M47.699 200.300 L 47.798 300.200 47.900 200.500 L 48.002 100.800 60.521 100.800 C 69.970 100.800,73.177 100.923,73.601 101.300 C 74.078 101.725,74.082 101.696,73.632 101.100 C 73.147 100.459,72.026 100.400,60.351 100.400 L 47.600 100.400 47.699 200.300 M164.000 100.789 L 176.600 101.000 176.600 200.480 C 176.600 255.194,176.735 299.825,176.901 299.659 C 177.066 299.494,177.156 254.638,177.101 199.979 L 177.000 100.600 164.200 100.589 L 151.400 100.577 164.000 100.789 M221.785 100.900 C 221.680 101.175,221.642 146.130,221.698 200.800 L 221.802 300.200 221.901 200.502 L 222.000 100.805 254.100 100.700 L 286.200 100.595 254.087 100.498 C 228.693 100.420,221.935 100.505,221.785 100.900 M290.200 101.223 C 291.080 101.405,292.250 101.544,292.800 101.531 C 293.441 101.516,293.226 101.389,292.200 101.177 C 291.320 100.995,290.150 100.856,289.600 100.869 C 288.959 100.884,289.174 101.011,290.200 101.223 M295.800 102.000 C 296.240 102.189,296.960 102.338,297.400 102.332 C 298.043 102.323,298.004 102.257,297.200 102.000 C 295.832 101.562,294.781 101.562,295.800 102.000 M318.800 109.564 C 319.350 110.014,319.980 110.383,320.200 110.385 C 320.628 110.388,319.905 109.834,318.600 109.160 C 318.069 108.885,318.136 109.021,318.800 109.564 M321.400 111.007 C 321.840 111.366,322.560 111.835,323.000 112.051 L 323.800 112.444 323.000 111.793 C 322.560 111.434,321.840 110.965,321.400 110.749 L 320.600 110.356 321.400 111.007 M324.000 112.566 C 324.000 112.674,324.855 113.336,325.900 114.038 C 326.945 114.740,328.519 115.964,329.397 116.757 L 330.995 118.200 329.797 116.858 C 328.674 115.599,324.000 112.139,324.000 112.566 M151.106 180.248 C 150.938 232.694,150.782 247.764,150.403 247.998 C 150.032 248.227,150.028 248.370,150.384 248.590 C 150.642 248.750,150.951 248.782,151.071 248.662 C 151.345 248.388,151.794 112.800,151.521 112.800 C 151.411 112.800,151.224 143.152,151.106 180.248 M334.220 121.600 C 335.102 122.590,336.705 124.660,337.781 126.200 C 339.953 129.307,340.719 130.232,340.065 128.956 C 339.296 127.459,334.950 121.830,333.766 120.800 C 333.061 120.186,333.236 120.495,334.220 121.600 M256.128 121.100 C 261.368 121.163,269.828 121.163,274.928 121.100 C 280.027 121.036,275.740 120.985,265.400 120.985 C 255.060 120.985,250.887 121.037,256.128 121.100 M246.592 159.400 C 246.592 180.300,246.641 188.909,246.700 178.530 C 246.759 168.152,246.759 151.052,246.700 140.530 C 246.641 130.009,246.592 138.500,246.592 159.400 M288.500 121.876 C 288.885 121.976,289.515 121.976,289.900 121.876 C 290.285 121.775,289.970 121.693,289.200 121.693 C 288.430 121.693,288.115 121.775,288.500 121.876 M292.433 122.543 C 292.525 122.621,293.230 122.801,294.000 122.942 C 294.985 123.123,295.222 123.082,294.800 122.806 C 294.258 122.450,292.037 122.203,292.433 122.543 M312.200 132.800 C 313.506 134.120,314.665 135.200,314.775 135.200 C 314.885 135.200,313.906 134.120,312.600 132.800 C 311.294 131.480,310.135 130.400,310.025 130.400 C 309.915 130.400,310.894 131.480,312.200 132.800 M341.800 132.800 C 342.141 133.460,342.511 134.000,342.621 134.000 C 342.731 134.000,342.541 133.460,342.200 132.800 C 341.859 132.140,341.489 131.600,341.379 131.600 C 341.269 131.600,341.459 132.140,341.800 132.800 M316.237 137.700 C 317.049 138.965,317.788 140.000,317.879 140.000 C 318.147 140.000,316.700 137.682,315.690 136.494 C 315.179 135.892,315.425 136.435,316.237 137.700 M346.006 145.033 C 346.009 145.455,346.195 146.070,346.418 146.400 C 346.715 146.838,346.752 146.676,346.556 145.800 C 346.227 144.329,345.998 144.010,346.006 145.033 M346.887 149.200 C 346.883 149.750,347.024 150.650,347.200 151.200 C 347.631 152.544,347.631 151.092,347.200 149.400 C 346.926 148.322,346.894 148.302,346.887 149.200 M321.444 150.200 C 321.773 151.671,322.002 151.990,321.994 150.967 C 321.991 150.545,321.805 149.930,321.582 149.600 C 321.285 149.162,321.248 149.324,321.444 150.200 M73.410 151.653 C 73.284 152.174,73.231 175.010,73.292 202.400 L 73.403 252.200 73.508 201.800 L 73.613 151.400 74.446 152.700 C 74.904 153.415,75.366 154.000,75.472 154.000 C 75.623 154.000,74.299 151.580,73.750 150.853 C 73.689 150.772,73.536 151.132,73.410 151.653 M322.200 159.761 C 322.200 163.176,322.322 165.662,322.472 165.285 C 322.817 164.417,322.807 155.708,322.460 154.476 C 322.317 153.968,322.200 156.347,322.200 159.761 M347.750 159.000 C 347.751 161.420,347.816 162.358,347.896 161.085 C 347.976 159.812,347.975 157.832,347.894 156.685 C 347.814 155.538,347.749 156.580,347.750 159.000 M102.800 157.600 C 103.466 158.920,104.102 160.000,104.212 160.000 C 104.322 160.000,103.866 158.920,103.200 157.600 C 102.534 156.280,101.898 155.200,101.788 155.200 C 101.678 155.200,102.134 156.280,102.800 157.600 M79.200 161.600 C 79.649 162.480,80.106 163.200,80.216 163.200 C 80.326 163.200,80.049 162.480,79.600 161.600 C 79.151 160.720,78.694 160.000,78.584 160.000 C 78.474 160.000,78.751 160.720,79.200 161.600 M347.000 168.800 C 346.846 169.710,346.804 170.538,346.907 170.640 C 347.010 170.743,347.213 170.077,347.360 169.160 C 347.507 168.243,347.548 167.415,347.453 167.320 C 347.358 167.224,347.154 167.890,347.000 168.800 M321.646 168.467 C 321.621 168.834,321.496 169.464,321.370 169.867 C 321.152 170.562,321.163 170.563,321.597 169.887 C 321.848 169.496,321.973 168.866,321.873 168.487 C 321.711 167.868,321.688 167.866,321.646 168.467 M314.975 182.668 C 314.359 183.476,314.059 184.011,314.309 183.856 C 314.821 183.540,316.553 181.200,316.275 181.200 C 316.176 181.200,315.591 181.861,314.975 182.668 M342.799 183.003 C 342.589 183.554,342.139 184.544,341.799 185.203 C 341.458 185.861,341.269 186.400,341.379 186.400 C 341.609 186.400,342.637 184.480,343.199 183.003 C 343.409 182.451,343.490 182.000,343.380 182.000 C 343.270 182.000,343.009 182.451,342.799 183.003 M90.600 183.600 C 90.941 184.260,91.311 184.800,91.421 184.800 C 91.531 184.800,91.341 184.260,91.000 183.600 C 90.659 182.940,90.289 182.400,90.179 182.400 C 90.069 182.400,90.259 182.940,90.600 183.600 M118.000 186.800 C 118.449 187.680,118.906 188.400,119.016 188.400 C 119.126 188.400,118.849 187.680,118.400 186.800 C 117.951 185.920,117.494 185.200,117.384 185.200 C 117.274 185.200,117.551 185.920,118.000 186.800 M308.800 188.849 C 307.406 190.071,307.405 190.072,308.688 189.219 C 309.396 188.748,310.082 188.191,310.212 187.981 C 310.597 187.357,310.277 187.554,308.800 188.849 M94.800 191.600 C 95.249 192.480,95.706 193.200,95.816 193.200 C 95.926 193.200,95.649 192.480,95.200 191.600 C 94.751 190.720,94.294 190.000,94.184 190.000 C 94.074 190.000,94.351 190.720,94.800 191.600 M336.067 193.977 C 335.370 194.844,334.800 195.667,334.800 195.807 C 334.800 196.036,335.633 195.080,337.158 193.100 C 338.252 191.682,337.292 192.452,336.067 193.977 M122.000 194.400 C 122.449 195.280,122.906 196.000,123.016 196.000 C 123.126 196.000,122.849 195.280,122.400 194.400 C 121.951 193.520,121.494 192.800,121.384 192.800 C 121.274 192.800,121.551 193.520,122.000 194.400 M299.032 194.217 C 297.730 194.758,296.380 195.214,296.032 195.232 C 295.593 195.254,295.558 195.327,295.918 195.471 C 296.432 195.677,300.653 194.183,301.380 193.538 C 301.932 193.047,301.661 193.126,299.032 194.217 M331.986 198.700 L 329.800 201.000 332.100 198.814 C 333.365 197.611,334.400 196.576,334.400 196.514 C 334.400 196.217,334.018 196.563,331.986 198.700 M288.900 197.076 C 289.285 197.176,289.915 197.176,290.300 197.076 C 290.685 196.975,290.370 196.893,289.600 196.893 C 288.830 196.893,288.515 196.975,288.900 197.076 M256.100 197.900 C 261.325 197.963,269.875 197.963,275.100 197.900 C 280.325 197.836,276.050 197.785,265.600 197.785 C 255.150 197.785,250.875 197.836,256.100 197.900 M99.600 200.800 C 100.049 201.680,100.506 202.400,100.616 202.400 C 100.726 202.400,100.449 201.680,100.000 200.800 C 99.551 199.920,99.094 199.200,98.984 199.200 C 98.874 199.200,99.151 199.920,99.600 200.800 M326.978 202.911 C 325.866 203.842,323.751 205.389,322.278 206.349 C 320.805 207.309,319.600 208.173,319.600 208.271 C 319.600 208.495,320.046 208.231,323.000 206.258 C 325.848 204.357,329.814 201.196,329.337 201.209 C 329.152 201.213,328.090 201.979,326.978 202.911 M127.000 204.000 C 127.341 204.660,127.711 205.200,127.821 205.200 C 127.931 205.200,127.741 204.660,127.400 204.000 C 127.059 203.340,126.689 202.800,126.579 202.800 C 126.469 202.800,126.659 203.340,127.000 204.000 M317.900 209.029 C 316.405 209.840,316.496 210.178,318.000 209.400 C 318.660 209.059,319.200 208.694,319.200 208.590 C 319.200 208.332,319.157 208.347,317.900 209.029 M133.000 215.600 C 133.557 216.700,134.103 217.600,134.213 217.600 C 134.323 217.600,133.957 216.700,133.400 215.600 C 132.843 214.500,132.297 213.600,132.187 213.600 C 132.077 213.600,132.443 214.500,133.000 215.600 M266.564 218.700 C 281.708 218.782,286.681 218.927,287.164 219.304 C 287.727 219.743,287.737 219.719,287.251 219.100 C 286.739 218.448,285.338 218.407,266.651 218.496 L 246.600 218.592 266.564 218.700 M246.593 259.600 C 246.593 281.930,246.641 291.065,246.700 279.900 C 246.759 268.735,246.759 250.465,246.700 239.300 C 246.641 228.135,246.593 237.270,246.593 259.600 M111.200 223.200 C 111.649 224.080,112.106 224.800,112.216 224.800 C 112.326 224.800,112.049 224.080,111.600 223.200 C 111.151 222.320,110.694 221.600,110.584 221.600 C 110.474 221.600,110.751 222.320,111.200 223.200 M137.600 224.400 C 138.049 225.280,138.506 226.000,138.616 226.000 C 138.726 226.000,138.449 225.280,138.000 224.400 C 137.551 223.520,137.094 222.800,136.984 222.800 C 136.874 222.800,137.151 223.520,137.600 224.400 M115.600 231.600 C 116.266 232.920,116.902 234.000,117.012 234.000 C 117.122 234.000,116.666 232.920,116.000 231.600 C 115.334 230.280,114.698 229.200,114.588 229.200 C 114.478 229.200,114.934 230.280,115.600 231.600 M140.415 229.800 C 140.417 230.020,140.786 230.650,141.236 231.200 C 141.779 231.864,141.915 231.931,141.640 231.400 C 140.966 230.095,140.412 229.372,140.415 229.800 M131.600 262.400 C 132.049 263.280,132.506 264.000,132.616 264.000 C 132.726 264.000,132.449 263.280,132.000 262.400 C 131.551 261.520,131.094 260.800,130.984 260.800 C 130.874 260.800,131.151 261.520,131.600 262.400 M335.200 263.345 C 335.200 263.779,337.587 268.400,337.812 268.400 C 337.922 268.400,337.448 267.275,336.758 265.900 C 335.452 263.294,335.200 262.881,335.200 263.345 M314.034 275.000 C 314.034 275.220,314.378 276.030,314.800 276.800 C 315.222 277.570,315.566 278.020,315.566 277.800 C 315.566 277.580,315.222 276.770,314.800 276.000 C 314.378 275.230,314.034 274.780,314.034 275.000 M143.200 284.800 C 143.649 285.680,144.106 286.400,144.216 286.400 C 144.326 286.400,144.049 285.680,143.600 284.800 C 143.151 283.920,142.694 283.200,142.584 283.200 C 142.474 283.200,142.751 283.920,143.200 284.800 M147.200 292.400 C 147.649 293.280,148.106 294.000,148.216 294.000 C 148.326 294.000,148.049 293.280,147.600 292.400 C 147.151 291.520,146.694 290.800,146.584 290.800 C 146.474 290.800,146.751 291.520,147.200 292.400 " stroke="none" fill="#8c8ca4" fill-rule="evenodd"></path><path id="path4" d="M52.200 100.284 C 63.219 100.565,73.508 100.573,73.339 100.300 C 73.236 100.135,67.448 100.038,60.476 100.086 C 53.504 100.133,49.780 100.222,52.200 100.284 M158.125 100.299 C 161.604 100.366,167.184 100.366,170.525 100.299 C 173.866 100.232,171.020 100.178,164.200 100.178 C 157.380 100.178,154.646 100.233,158.125 100.299 M221.862 100.300 C 221.693 100.572,242.847 100.569,271.000 100.293 C 276.940 100.234,268.356 100.145,251.924 100.093 C 235.492 100.042,221.964 100.135,221.862 100.300 M151.361 106.800 C 151.361 110.210,151.422 111.605,151.497 109.900 C 151.572 108.195,151.572 105.405,151.497 103.700 C 151.422 101.995,151.361 103.390,151.361 106.800 M150.982 200.600 C 150.982 209.180,151.035 212.633,151.100 208.274 C 151.164 203.914,151.164 196.894,151.099 192.674 C 151.035 188.453,150.982 192.020,150.982 200.600 M73.387 273.800 C 73.387 285.900,73.437 290.908,73.500 284.928 C 73.562 278.949,73.562 269.049,73.500 262.928 C 73.438 256.808,73.387 261.700,73.387 273.800 M54.125 300.299 C 57.604 300.366,63.184 300.366,66.525 300.299 C 69.866 300.232,67.020 300.178,60.200 300.178 C 53.380 300.178,50.646 300.233,54.125 300.299 M158.125 300.299 C 161.604 300.366,167.184 300.366,170.525 300.299 C 173.866 300.232,171.020 300.178,164.200 300.178 C 157.380 300.178,154.646 300.233,158.125 300.299 M228.325 300.299 C 231.693 300.366,237.093 300.366,240.325 300.299 C 243.556 300.232,240.800 300.177,234.200 300.177 C 227.600 300.177,224.956 300.232,228.325 300.299 M333.125 300.299 C 336.714 300.366,342.474 300.366,345.925 300.299 C 349.376 300.233,346.440 300.178,339.400 300.178 C 332.360 300.179,329.536 300.233,333.125 300.299 " stroke="none" fill="#84849c" fill-rule="evenodd"></path></g></svg>